<?xml version="1.0" encoding="utf-8" ?>
<svg xmlns="http://www.w3.org/2000/svg" xmlns:xlink="http://www.w3.org/1999/xlink" width="25" height="25">
	<defs>
		<clipPath id="clip_0">
			<rect x="-875" y="-367" width="1440" height="3638" clip-rule="evenodd"/>
		</clipPath>
	</defs>
	<g clip-path="url(#clip_0)">
		<path fill="rgb(3,39,119)" stroke="none" d="M22.8027 0L2.19727 0C0.985693 0 0 0.985693 0 2.19727L0 22.8027C0 24.0143 0.985693 25 2.19727 25L22.8027 25C24.0143 25 25 24.0143 25 22.8027L25 2.19727C25 0.985693 24.0143 0 22.8027 0ZM1.46484 5.85938L23.5352 5.85938L23.5352 2.19727C23.5352 1.79341 23.2066 1.46484 22.8027 1.46484L2.19727 1.46484C1.79341 1.46484 1.46484 1.79341 1.46484 2.19727L1.46484 5.85938ZM23.5352 22.8027C23.5352 23.2066 23.2066 23.5352 22.8027 23.5352L2.19727 23.5352C1.79341 23.5352 1.46484 23.2066 1.46484 22.8027L1.46484 7.32422L23.5352 7.32422L23.5352 22.8027Z" fill-rule="evenodd"/>
	</g>
	<defs>
		<clipPath id="clip_1">
			<rect x="-875" y="-367" width="1440" height="3638" clip-rule="evenodd"/>
		</clipPath>
	</defs>
	<g clip-path="url(#clip_1)">
		<path fill="rgb(3,39,119)" stroke="none" transform="translate(2.94116 2.94116)" d="M0.735294 1.47059C1.14139 1.47059 1.47059 1.14139 1.47059 0.735294C1.47059 0.329202 1.14139 0 0.735294 0C0.329202 0 0 0.329202 0 0.735294C0 1.14139 0.329202 1.47059 0.735294 1.47059Z"/>
	</g>
	<defs>
		<clipPath id="clip_2">
			<rect x="-875" y="-367" width="1440" height="3638" clip-rule="evenodd"/>
		</clipPath>
	</defs>
	<g clip-path="url(#clip_2)">
		<path fill="rgb(3,39,119)" stroke="none" transform="translate(5.88235 2.94116)" d="M0.735294 1.47059C1.14139 1.47059 1.47059 1.14139 1.47059 0.735294C1.47059 0.329202 1.14139 0 0.735294 0C0.329202 0 0 0.329202 0 0.735294C0 1.14139 0.329202 1.47059 0.735294 1.47059Z"/>
	</g>
	<defs>
		<clipPath id="clip_3">
			<rect x="-875" y="-367" width="1440" height="3638" clip-rule="evenodd"/>
		</clipPath>
	</defs>
	<g clip-path="url(#clip_3)">
		<path fill="rgb(3,39,119)" stroke="none" transform="translate(8.82352 2.94116)" d="M0.735294 1.47059C1.14139 1.47059 1.47059 1.14139 1.47059 0.735294C1.47059 0.329202 1.14139 0 0.735294 0C0.329202 0 0 0.329202 0 0.735294C0 1.14139 0.329202 1.47059 0.735294 1.47059Z"/>
	</g>
	<defs>
		<clipPath id="clip_4">
			<rect x="-875" y="-367" width="1440" height="3638" clip-rule="evenodd"/>
		</clipPath>
	</defs>
	<g clip-path="url(#clip_4)">
		<path fill="rgb(3,39,119)" stroke="none" transform="translate(2.94116 8.82349)" d="M0.735294 0L8.08823 0C8.49431 0 8.82353 0.324884 8.82353 0.725619L8.82353 6.62732C8.82353 7.02806 8.49431 7.35294 8.08823 7.35294L0.735294 7.35294C0.329216 7.35294 0 7.02806 0 6.62732L0 0.725619C0 0.324884 0.329216 0 0.735294 0ZM1.47059 5.9017L7.35294 5.9017L7.35294 1.45124L1.47059 1.45124L1.47059 5.9017Z" fill-rule="evenodd"/>
	</g>
	<defs>
		<clipPath id="clip_5">
			<rect x="-875" y="-367" width="1440" height="3638" clip-rule="evenodd"/>
		</clipPath>
	</defs>
	<g clip-path="url(#clip_5)">
		<path fill="rgb(3,39,119)" stroke="none" transform="translate(13.2353 14.7059)" d="M8.09632 0L0.727214 0C0.325598 0 0 0.329216 0 0.735294C0 1.14137 0.325598 1.47059 0.727214 1.47059L8.09632 1.47059C8.49793 1.47059 8.82353 1.14137 8.82353 0.735294C8.82353 0.329216 8.49793 0 8.09632 0Z"/>
	</g>
	<defs>
		<clipPath id="clip_6">
			<rect x="-875" y="-367" width="1440" height="3638" clip-rule="evenodd"/>
		</clipPath>
	</defs>
	<g clip-path="url(#clip_6)">
		<path fill="rgb(3,39,119)" stroke="none" transform="translate(13.2353 11.7646)" d="M8.09632 0L0.727214 0C0.325598 0 0 0.329216 0 0.735294C0 1.14137 0.325598 1.47059 0.727214 1.47059L8.09632 1.47059C8.49793 1.47059 8.82353 1.14137 8.82353 0.735294C8.82353 0.329216 8.49793 0 8.09632 0Z"/>
	</g>
	<defs>
		<clipPath id="clip_7">
			<rect x="-875" y="-367" width="1440" height="3638" clip-rule="evenodd"/>
		</clipPath>
	</defs>
	<g clip-path="url(#clip_7)">
		<path fill="rgb(3,39,119)" stroke="none" transform="translate(2.94116 17.6471)" d="M18.3861 0L0.731543 0C0.327536 0 0 0.329216 0 0.735294C0 1.14137 0.327536 1.47059 0.731543 1.47059L18.3861 1.47059C18.7901 1.47059 19.1176 1.14137 19.1176 0.735294C19.1176 0.329216 18.7901 0 18.3861 0Z"/>
	</g>
	<defs>
		<clipPath id="clip_8">
			<rect x="-875" y="-367" width="1440" height="3638" clip-rule="evenodd"/>
		</clipPath>
	</defs>
	<g clip-path="url(#clip_8)">
		<path fill="rgb(3,39,119)" stroke="none" transform="translate(2.94116 20.5883)" d="M18.3861 0L0.731543 0C0.327536 0 0 0.329216 0 0.735294C0 1.14137 0.327536 1.47059 0.731543 1.47059L18.3861 1.47059C18.7901 1.47059 19.1176 1.14137 19.1176 0.735294C19.1176 0.329216 18.7901 0 18.3861 0Z"/>
	</g>
</svg>
