<?xml version="1.0" encoding="utf-8" ?>
<svg xmlns="http://www.w3.org/2000/svg" xmlns:xlink="http://www.w3.org/1999/xlink" width="12" height="13">
	<defs>
		<clipPath id="clip_0">
			<rect x="-1207" y="-23" width="1440" height="3638" clip-rule="evenodd"/>
		</clipPath>
	</defs>
	<g clip-path="url(#clip_0)">
		<path fill="rgb(255,255,255)" stroke="none" d="M9.49991 8.16467L11.8368 10.5379C12.0548 10.7617 12.0548 11.1235 11.8345 11.3472L11.1711 12.0209C10.9531 12.2446 10.5969 12.2446 10.3765 12.0209L8.03965 9.64764C7.93417 9.54053 7.87558 9.39532 7.87558 9.24298L7.87558 8.85498C7.04817 9.51196 6.00747 9.90234 4.87536 9.90234C2.18219 9.90234 0 7.68622 0 4.95117C0 2.21613 2.18219 0 4.87536 0C7.56852 0 9.75071 2.21613 9.75071 4.95117C9.75071 6.10089 9.36631 7.15778 8.71939 7.99805L9.10145 7.99805C9.25146 7.99805 9.39444 8.05756 9.49991 8.16467ZM1.87514 4.95117C1.87514 6.63647 3.2182 7.99805 4.87536 7.99805C6.53485 7.99805 7.87558 6.63409 7.87558 4.95117C7.87558 3.26587 6.53251 1.9043 4.87536 1.9043C3.21586 1.9043 1.87514 3.26825 1.87514 4.95117Z" fill-rule="evenodd"/>
	</g>
</svg>
